<svg version="1.2" xmlns="http://www.w3.org/2000/svg" viewBox="0 0 14 16" width="14" height="16"><style>.a{fill:#efebe4}</style><path fill-rule="evenodd" class="a" d="m2.5 0h9c1.4 0 2.5 1.1 2.5 2.5v11c0 1.4-1.1 2.5-2.5 2.5h-9c-1.4 0-2.5-1.1-2.5-2.5v-11c0-1.4 1.1-2.5 2.5-2.5zm-1.5 9v4c0 1.1 0.9 2 2 2h8c1.1 0 2-0.9 2-2v-4q0 0 0 0v-2h-1v0.3q0 0 0 0 0 0.2 0 0.4c0 2.9-2.2 5.3-5 5.3-2.8 0-5-2.4-5-5.3q0-0.2 0-0.4 0 0 0 0v-0.3h-1v2q0 0 0 0zm2-1c0 2.2 1.8 4 4 4 2.2 0 4-1.8 4-4 0-2.2-1.8-4-4-4-2.2 0-4 1.8-4 4zm7-4h2v-2h-2z"/></svg>